<?xml version="1.0" encoding="utf-8"?>
<!-- Generator: Adobe Illustrator 26.0.2, SVG Export Plug-In . SVG Version: 6.00 Build 0)  -->
<svg version="1.1" id="레이어_1" xmlns="http://www.w3.org/2000/svg" xmlns:xlink="http://www.w3.org/1999/xlink" x="0px"
	 y="0px" viewBox="0 0 188.4 84.3" style="enable-background:new 0 0 188.4 84.3;" xml:space="preserve">
<style type="text/css">
	.st0{enable-background:new    ;}
</style>
<g class="st0">
	<path d="M48.1,38.4c0,11-7.6,18.1-17.9,18.1c-4.8,0-8.9-1.6-11.7-5v4.6h-7.9v-49H19v18c2.8-3.2,6.8-4.7,11.3-4.7
		C40.6,20.4,48.1,27.5,48.1,38.4z M39.8,38.4c0-6.7-4.5-11-10.4-11s-10.5,4.3-10.5,11s4.6,11,10.5,11S39.8,45.2,39.8,38.4z"/>
	<path d="M50.1,38.4c0-10.6,7.9-18,18.7-18c11,0,18.8,7.5,18.8,18c0,10.6-7.9,18.1-18.8,18.1C58,56.5,50.1,49,50.1,38.4z M79.4,38.4
		c0-6.7-4.5-11-10.5-11c-5.9,0-10.4,4.3-10.4,11s4.5,11,10.4,11C74.9,49.5,79.4,45.2,79.4,38.4z"/>
	<path d="M89.7,38.4c0-10.6,7.9-18,18.7-18c11,0,18.8,7.5,18.8,18c0,10.6-7.9,18.1-18.8,18.1C97.6,56.5,89.7,49,89.7,38.4z
		 M119,38.4c0-6.7-4.5-11-10.5-11c-5.9,0-10.4,4.3-10.4,11s4.5,11,10.4,11C114.5,49.5,119,45.2,119,38.4z"/>
	<path d="M128.2,52.6l3.2-6.3c3.1,2,7.9,3.5,12.3,3.5c5.2,0,7.4-1.5,7.4-3.9c0-6.7-21.8-0.4-21.8-14.5c0-6.7,6-11,15.5-11
		c4.7,0,10,1.1,13.2,3l-3.2,6.3c-3.4-2-6.7-2.6-10.1-2.6c-5,0-7.4,1.7-7.4,4c0,7.1,21.8,0.8,21.8,14.6c0,6.6-6.1,10.9-16,10.9
		C137.2,56.5,131.4,54.8,128.2,52.6z"/>
	<path d="M184.4,54.2c-2,1.6-4.9,2.4-7.9,2.4c-7.7,0-12.1-4.1-12.1-11.9v-17h-5.8v-6.6h5.8V13h8.2v8.1h9.4v6.6h-9.4v16.8
		c0,3.4,1.7,5.3,4.9,5.3c1.7,0,3.4-0.5,4.6-1.5L184.4,54.2z"/>
</g>
<g class="st0">
	<path d="M22.4,66.6c0-0.6,0.4-1,1-1s1,0.4,1,1c0,0.6-0.4,1-1,1C22.8,67.6,22.4,67.2,22.4,66.6z M22.6,69.2h1.5v8.5h-1.5V69.2z"/>
	<path d="M41.2,72.8v4.9h-1.5V73c0-1.7-0.8-2.5-2.2-2.5c-1.5,0-2.5,1-2.5,2.8v4.4h-1.5V73c0-1.7-0.8-2.5-2.2-2.5
		c-1.5,0-2.5,1-2.5,2.8v4.4h-1.5v-8.5h1.5v1.3c0.6-0.9,1.6-1.3,2.9-1.3c1.3,0,2.4,0.5,2.9,1.6c0.6-1,1.8-1.6,3.3-1.6
		C39.8,69.2,41.2,70.3,41.2,72.8z"/>
	<path d="M58.1,72.8v4.9h-1.5V73c0-1.7-0.8-2.5-2.2-2.5c-1.5,0-2.5,1-2.5,2.8v4.4h-1.5V73c0-1.7-0.8-2.5-2.2-2.5
		c-1.5,0-2.5,1-2.5,2.8v4.4H44v-8.5h1.5v1.3c0.6-0.9,1.6-1.3,2.9-1.3c1.3,0,2.4,0.5,2.9,1.6c0.6-1,1.8-1.6,3.3-1.6
		C56.7,69.2,58.1,70.3,58.1,72.8z"/>
	<path d="M68.8,69.2v8.5h-1.5v-1.3c-0.6,0.9-1.7,1.4-2.9,1.4c-2.2,0-3.6-1.2-3.6-3.7v-4.9h1.5v4.7c0,1.7,0.8,2.5,2.3,2.5
		c1.6,0,2.6-1,2.6-2.8v-4.4H68.8z"/>
	<path d="M79.8,72.8v4.9h-1.5V73c0-1.7-0.8-2.5-2.3-2.5c-1.6,0-2.7,1-2.7,2.8v4.4h-1.5v-8.5h1.5v1.3c0.6-0.9,1.7-1.4,3.1-1.4
		C78.4,69.2,79.8,70.3,79.8,72.8z"/>
	<path d="M82.4,66.6c0-0.6,0.4-1,1-1c0.6,0,1,0.4,1,1c0,0.6-0.4,1-1,1C82.8,67.6,82.4,67.2,82.4,66.6z M82.7,69.2h1.5v8.5h-1.5V69.2
		z"/>
	<path d="M91.9,77.2c-0.5,0.4-1.2,0.6-1.9,0.6c-1.7,0-2.7-0.9-2.7-2.7v-4.7h-1.4v-1.3h1.4v-1.9h1.5v1.9h2.4v1.3h-2.4v4.6
		c0,0.9,0.5,1.4,1.3,1.4c0.4,0,0.9-0.1,1.2-0.4L91.9,77.2z"/>
	<path d="M101.1,69.2L97,78.6c-0.8,1.8-1.7,2.4-3,2.4c-0.8,0-1.6-0.3-2.2-0.8l0.7-1.2c0.4,0.4,0.9,0.6,1.5,0.6
		c0.7,0,1.2-0.3,1.6-1.3l0.3-0.6l-3.7-8.5h1.6l3,6.8l2.9-6.8H101.1z"/>
	<path d="M114.3,69.2l-3.7,8.5h-1.6l-3.7-8.5h1.6l2.9,6.8l3-6.8H114.3z"/>
	<path d="M115.5,66.6c0-0.6,0.4-1,1-1c0.6,0,1,0.4,1,1c0,0.6-0.4,1-1,1C115.9,67.6,115.5,67.2,115.5,66.6z M115.8,69.2h1.5v8.5h-1.5
		V69.2z"/>
	<path d="M125,77.2c-0.5,0.4-1.2,0.6-1.9,0.6c-1.7,0-2.7-0.9-2.7-2.7v-4.7H119v-1.3h1.4v-1.9h1.5v1.9h2.4v1.3H122v4.6
		c0,0.9,0.5,1.4,1.3,1.4c0.4,0,0.9-0.1,1.2-0.4L125,77.2z"/>
	<path d="M133.6,72.6v5.1h-1.5v-1.1c-0.5,0.8-1.5,1.2-2.8,1.2c-1.9,0-3.1-1-3.1-2.5c0-1.4,0.9-2.5,3.4-2.5h2.4v-0.3
		c0-1.3-0.8-2-2.3-2c-1,0-2,0.4-2.7,0.9l-0.6-1.2c0.9-0.7,2.1-1.1,3.5-1.1C132.3,69.2,133.6,70.3,133.6,72.6z M132,75.1v-1.2h-2.4
		c-1.5,0-2,0.6-2,1.3c0,0.8,0.7,1.4,1.9,1.4C130.8,76.6,131.7,76.1,132,75.1z"/>
	<path d="M150.5,72.8v4.9H149V73c0-1.7-0.8-2.5-2.2-2.5c-1.5,0-2.5,1-2.5,2.8v4.4h-1.5V73c0-1.7-0.8-2.5-2.2-2.5
		c-1.5,0-2.5,1-2.5,2.8v4.4h-1.5v-8.5h1.5v1.3c0.6-0.9,1.6-1.3,2.9-1.3c1.3,0,2.4,0.5,2.9,1.6c0.6-1,1.8-1.6,3.3-1.6
		C149.1,69.2,150.5,70.3,150.5,72.8z"/>
	<path d="M153.1,66.6c0-0.6,0.4-1,1-1c0.6,0,1,0.4,1,1c0,0.6-0.4,1-1,1C153.5,67.6,153.1,67.2,153.1,66.6z M153.3,69.2h1.5v8.5h-1.5
		V69.2z"/>
	<path d="M165.9,72.8v4.9h-1.5V73c0-1.7-0.8-2.5-2.3-2.5c-1.6,0-2.7,1-2.7,2.8v4.4h-1.5v-8.5h1.5v1.3c0.6-0.9,1.7-1.4,3.1-1.4
		C164.4,69.2,165.9,70.3,165.9,72.8z"/>
</g>
</svg>
