<?xml version="1.0" encoding="utf-8"?>
<!-- Generator: Adobe Illustrator 26.0.2, SVG Export Plug-In . SVG Version: 6.00 Build 0)  -->
<svg version="1.1" id="레이어_1" xmlns="http://www.w3.org/2000/svg" xmlns:xlink="http://www.w3.org/1999/xlink" x="0px"
	 y="0px" viewBox="0 0 31.9 32.8" style="enable-background:new 0 0 31.9 32.8;" xml:space="preserve">
<style type="text/css">
	.st0{display:none;}
	.st1{fill:#040000;}
	.st2{fill:#FFFFFF;}
	.st3{fill:#FFFFFF;stroke:#040000;stroke-width:0.75;stroke-miterlimit:10;}
</style>
<g id="레이어_1_00000093883431586053369560000014508931580996297143_" class="st0">
</g>
<g id="레이어_3">
	<ellipse class="st1" cx="16" cy="16.3" rx="15.4" ry="16"/>
</g>
<g>
	<path class="st2" d="M16.1,32.4c-5.8,0-9.9-3.6-10-3.8L6,28.5l0.2-3.7l5.2-6.5l9-0.1l5.8,6.6v3.7l-0.1,0.1
		C22.8,31.2,19.5,32.4,16.1,32.4L16.1,32.4z"/>
	<path class="st1" d="M20.1,18.6l5.6,6.4v3.4c-3.4,2.7-6.7,3.7-9.6,3.7c-5.7,0-9.8-3.7-9.8-3.7L6.5,25l5-6.3L20.1,18.6 M20.4,17.8
		h-0.3l-8.6,0.1h-0.4l-0.2,0.3l-5,6.3l-0.1,0.2v0.2l-0.2,3.4v0.4L5.8,29c0.2,0.2,4.3,3.9,10.3,3.9c3.5,0,6.8-1.4,10-3.9l0.4-0.3
		v-0.2V25v-0.3l-0.2-0.2l-5.6-6.4L20.4,17.8L20.4,17.8z"/>
</g>
<path class="st3" d="M22.4,18.8c0,0,3.2-0.3,4.4,1.5c1.2,1.8,1,5,0.6,5.4s-1.3,1.7-3.3,0.6s-4.3-3.6-3.8-5.6l1.9-1.7"/>
<path class="st3" d="M9.1,18.8c0,0-3.2-0.3-4.4,1.5s-0.9,5-0.6,5.4s1.3,1.7,3.3,0.6s4.3-3.6,3.8-5.6L9.1,18.8"/>
<path class="st3" d="M18.3,7.3c0,0,2.2-3.9,6.3,0c0,0,3.4,3.7-1.4,6.6C23.1,13.8,22.5,9.4,18.3,7.3z"/>
<path class="st3" d="M13.3,7.3c0,0-2.2-3.9-6.3,0c0,0-3.4,3.7,1.4,6.6C8.4,13.8,9,9.4,13.3,7.3z"/>
<path class="st3" d="M23.1,13.8c0,0,0.8,3.1-0.9,5.2c-0.5,0.7-1.4,1.3-2.6,1.7h-8.2c0,0-4.5-1.5-3-6.9c0,0-0.6-4.9,4.8-6.6
	c0,0,2.4-0.3,5,0C18.3,7.3,22.8,8.4,23.1,13.8z"/>
<g id="레이어_2_00000083072221989405072520000009191300486065985947_">
	<g>
		<path d="M16,0.8c8.3,0,15.1,7,15.1,15.6S24.3,32,16,32S0.9,25,0.9,16.4S7.7,0.8,16,0.8 M16,0C7.2,0,0.1,7.3,0.1,16.4
			S7.2,32.8,16,32.8s15.9-7.3,15.9-16.4S24.8,0,16,0L16,0z"/>
	</g>
</g>
</svg>
